<svg version="1.1" id="Layer_1" xmlns="http://www.w3.org/2000/svg" xmlns:xlink="http://www.w3.org/1999/xlink" x="0px" y="0px"
	 width="100%" viewBox="0 0 264 263" enable-background="new 0 0 264 263" xml:space="preserve">
<path fill="#7ABF44" opacity="1.000000" stroke="none" 
	d="
M120.000000,1.000000 
	C128.020905,1.000000 136.041809,1.000000 144.732605,1.368012 
	C150.587692,2.487002 155.823807,2.987996 160.949341,4.031950 
	C183.939804,8.714565 203.977707,19.342014 221.360443,34.939522 
	C231.589157,44.117710 240.326553,54.618240 247.116882,66.636261 
	C255.316849,81.149162 260.835236,96.588203 262.998840,113.164597 
	C263.687439,118.440254 264.334137,123.721382 265.000000,129.000000 
	C265.000000,131.041672 265.000000,133.083328 264.624329,135.777481 
	C264.370758,149.013474 262.271973,161.294891 258.325684,173.166977 
	C251.022995,195.136490 239.132660,214.136032 221.817017,229.845612 
	C205.570190,244.585480 187.144058,254.845154 165.885101,260.071747 
	C160.273972,261.451263 154.629288,262.694305 149.000000,264.000000 
	C138.645767,264.000000 128.291550,264.000000 117.273178,263.635315 
	C97.065926,261.381653 79.295509,254.524780 62.649109,244.314560 
	C44.932510,233.447861 30.895519,218.940094 20.141056,201.308823 
	C12.282818,188.425751 6.501499,174.620102 3.963382,159.603287 
	C3.081280,154.384338 1.993721,149.200089 1.000000,144.000000 
	C1.000000,136.979050 1.000000,129.958099 1.370086,122.263626 
	C2.446976,104.320694 7.513463,88.138725 15.167435,72.895226 
	C22.391199,58.508514 32.158447,45.913017 44.288177,35.044495 
	C60.687603,20.350222 79.172211,9.932904 100.652672,4.987799 
	C107.067802,3.510946 113.549049,2.321257 120.000000,1.000000 
M154.434525,161.593262 
	C154.622437,162.403152 154.810364,163.213043 155.008408,164.770950 
	C157.022018,168.131607 159.035629,171.492249 160.907776,174.616806 
	C153.602707,175.326843 153.602707,175.326843 152.488327,179.747498 
	C154.181915,179.851944 155.764145,180.026260 157.347153,180.033783 
	C164.006683,180.065445 170.737045,179.430115 177.310791,180.181763 
	C189.288544,181.551300 195.396622,171.721939 203.902100,166.704483 
	C206.088882,165.414490 206.940033,159.666977 206.357986,156.323532 
	C205.059723,148.865875 202.310303,141.672623 200.482330,134.289886 
	C199.703918,131.146149 199.898117,128.186035 204.848145,129.041351 
	C206.014053,129.242828 207.543793,127.338791 208.906158,126.403358 
	C207.986679,125.170990 207.330978,123.433411 206.102859,122.792168 
	C200.242523,119.732330 194.392029,122.966820 193.920807,129.635162 
	C193.678635,133.062393 193.869095,136.660248 194.666382,139.988815 
	C195.935501,145.287231 198.007248,150.387680 199.493240,155.641510 
	C200.897354,160.605804 199.570236,162.896820 194.719116,164.746307 
	C194.515701,164.508026 194.235657,164.300659 194.124496,164.025146 
	C193.876373,163.410294 193.632111,162.774490 193.526413,162.124451 
	C191.884979,152.030396 185.970306,145.090866 176.807922,141.350159 
	C167.655365,137.613449 162.336853,131.585968 160.712646,121.698059 
	C159.219391,112.607376 152.691986,107.065277 145.289139,102.225052 
	C144.871887,105.108925 145.402740,108.519928 144.010971,109.742874 
	C139.690460,113.539291 134.639740,116.504715 129.984940,119.714943 
	C130.123199,124.595558 130.893448,125.994698 134.444550,128.045547 
	C141.912949,132.358780 142.879684,134.282486 141.057861,142.983154 
	C139.622559,149.837769 139.394333,156.430038 142.962769,162.800186 
	C146.134140,168.461517 145.249313,171.252747 139.870575,174.795486 
	C138.357346,175.792160 137.210159,177.344543 135.895065,178.642044 
	C136.184280,179.139984 136.473480,179.637939 136.762680,180.135880 
	C138.710037,180.135880 140.698090,179.881180 142.597015,180.184448 
	C147.934494,181.036865 150.082382,178.337479 151.001572,173.531723 
	C151.806976,169.320770 153.082474,165.199722 154.434525,161.593262 
M75.982353,83.485313 
	C73.671242,84.874237 71.516235,86.827301 69.012497,87.520134 
	C65.238358,88.564507 61.220577,88.728416 57.387451,89.255440 
	C55.733658,101.291214 60.908604,107.613541 72.524689,108.180870 
	C75.004883,108.301994 77.482445,109.014404 79.940033,108.917419 
	C82.686310,108.809036 83.657127,110.072426 84.411560,112.443237 
	C86.822929,120.021049 89.597549,127.485847 91.889046,135.097488 
	C92.491280,137.097946 92.451065,139.713272 91.677444,141.631470 
	C88.761993,148.860367 85.580185,155.996078 82.129906,162.984924 
	C81.277359,164.711838 78.998367,165.711090 77.442566,167.119354 
	C74.598808,169.693420 71.563889,172.126785 69.168404,175.073792 
	C68.601204,175.771561 70.189049,179.689728 70.891541,179.720673 
	C77.005737,179.989944 83.221336,180.254974 89.247337,179.398895 
	C93.092903,178.852585 103.625664,157.910004 102.915024,153.961075 
	C102.417976,151.199097 101.610115,148.409912 101.670959,145.648956 
	C101.779533,140.722565 101.836975,135.577637 106.694542,132.192413 
	C103.847702,144.349594 106.629646,155.543945 111.732994,164.906540 
	C107.812103,168.106216 104.104309,170.169144 101.784821,173.270416 
	C98.934219,177.081802 100.763496,179.995865 105.491524,180.087677 
	C112.318947,180.220261 119.151810,180.201660 125.980255,180.102768 
	C129.880692,180.046265 131.599167,177.648163 130.631866,173.833252 
	C130.250900,172.330704 129.608719,170.894379 129.085495,169.427887 
	C129.338013,169.188202 129.590530,168.948502 129.843048,168.708817 
	C131.504486,169.803619 133.165924,170.898422 135.964203,172.742340 
	C137.157791,170.592606 139.870193,167.657242 139.253510,166.507446 
	C134.614655,157.858490 134.449173,149.121002 136.912552,139.921936 
	C137.667206,137.103790 136.995468,134.601013 133.736893,132.940598 
	C126.451019,129.228012 124.423920,124.310989 125.870529,115.606514 
	C127.805939,114.862984 129.741348,114.119446 132.425964,113.088089 
	C129.774109,110.947235 127.788734,109.252052 125.708870,107.682045 
	C118.391586,102.158554 112.736557,95.514626 109.560471,86.670952 
	C107.212318,80.132652 103.945251,73.918175 100.963280,67.618263 
	C100.258392,66.129059 99.054390,64.876083 97.442284,62.623291 
	C95.470619,66.598442 93.769943,69.430016 92.630997,72.471909 
	C91.145935,76.438225 88.694618,78.511711 84.407555,79.259697 
	C81.638161,79.742889 79.118149,81.655342 75.982353,83.485313 
z"/>
<path fill="#FFFFFF" opacity="1.000000" stroke="none" 
	d="
M265.000000,128.531342 
	C264.334137,123.721382 263.687439,118.440254 262.998840,113.164597 
	C260.835236,96.588203 255.316849,81.149162 247.116882,66.636261 
	C240.326553,54.618240 231.589157,44.117710 221.360443,34.939522 
	C203.977707,19.342014 183.939804,8.714565 160.949341,4.031950 
	C155.823807,2.987996 150.587692,2.487002 145.201233,1.368012 
	C184.929321,1.000000 224.858643,1.000000 265.000000,1.000000 
	C265.000000,43.353992 265.000000,85.708336 265.000000,128.531342 
z"/>
<path fill="#FFFFFF" opacity="1.000000" stroke="none" 
	d="
M149.468658,264.000000 
	C154.629288,262.694305 160.273972,261.451263 165.885101,260.071747 
	C187.144058,254.845154 205.570190,244.585480 221.817017,229.845612 
	C239.132660,214.136032 251.022995,195.136490 258.325684,173.166977 
	C262.271973,161.294891 264.370758,149.013474 264.624329,136.214981 
	C265.000000,178.590042 265.000000,221.180069 265.000000,264.000000 
	C226.646072,264.000000 188.291702,264.000000 149.468658,264.000000 
z"/>
<path fill="#FFFFFF" opacity="1.000000" stroke="none" 
	d="
M119.531342,1.000000 
	C113.549049,2.321257 107.067802,3.510946 100.652672,4.987799 
	C79.172211,9.932904 60.687603,20.350222 44.288177,35.044495 
	C32.158447,45.913017 22.391199,58.508514 15.167435,72.895226 
	C7.513463,88.138725 2.446976,104.320694 1.370086,121.795052 
	C1.000000,81.740311 1.000000,41.480614 1.000000,1.000000 
	C40.353951,1.000000 79.708321,1.000000 119.531342,1.000000 
z"/>
<path fill="#FFFFFF" opacity="1.000000" stroke="none" 
	d="
M1.000000,144.468658 
	C1.993721,149.200089 3.081280,154.384338 3.963382,159.603287 
	C6.501499,174.620102 12.282818,188.425751 20.141056,201.308823 
	C30.895519,218.940094 44.932510,233.447861 62.649109,244.314560 
	C79.295509,254.524780 97.065926,261.381653 116.804520,263.635315 
	C78.405136,264.000000 39.810268,264.000000 1.000000,264.000000 
	C1.000000,224.312698 1.000000,184.625015 1.000000,144.468658 
z"/>
<path fill="#010101" opacity="1.000000" stroke="none" 
	d="
M76.234367,83.206299 
	C79.118149,81.655342 81.638161,79.742889 84.407555,79.259697 
	C88.694618,78.511711 91.145935,76.438225 92.630997,72.471909 
	C93.769943,69.430016 95.470619,66.598442 97.442284,62.623291 
	C99.054390,64.876083 100.258392,66.129059 100.963280,67.618263 
	C103.945251,73.918175 107.212318,80.132652 109.560471,86.670952 
	C112.736557,95.514626 118.391586,102.158554 125.708870,107.682045 
	C127.788734,109.252052 129.774109,110.947235 132.425964,113.088089 
	C129.741348,114.119446 127.805939,114.862984 125.870850,115.607086 
	C124.423920,124.310989 126.451019,129.228012 133.736893,132.940598 
	C136.995468,134.601013 137.667206,137.103790 136.912552,139.921936 
	C134.449173,149.121002 134.614655,157.858490 139.253510,166.507446 
	C139.870193,167.657242 137.157791,170.592606 135.964203,172.742340 
	C133.165924,170.898422 131.504486,169.803619 129.843048,168.708817 
	C129.590530,168.948502 129.338013,169.188202 129.085495,169.427887 
	C129.608719,170.894379 130.250900,172.330704 130.631866,173.833252 
	C131.599167,177.648163 129.880692,180.046265 125.980255,180.102768 
	C119.151810,180.201660 112.318947,180.220261 105.491524,180.087677 
	C100.763496,179.995865 98.934219,177.081802 101.784821,173.270416 
	C104.104309,170.169144 107.812103,168.106216 111.732994,164.906540 
	C106.629646,155.543945 103.847702,144.349594 106.694542,132.192413 
	C101.836975,135.577637 101.779533,140.722565 101.670959,145.648956 
	C101.610115,148.409912 102.417976,151.199097 102.915024,153.961075 
	C103.625664,157.910004 93.092903,178.852585 89.247337,179.398895 
	C83.221336,180.254974 77.005737,179.989944 70.891541,179.720673 
	C70.189049,179.689728 68.601204,175.771561 69.168404,175.073792 
	C71.563889,172.126785 74.598808,169.693420 77.442566,167.119354 
	C78.998367,165.711090 81.277359,164.711838 82.129906,162.984924 
	C85.580185,155.996078 88.761993,148.860367 91.677444,141.631470 
	C92.451065,139.713272 92.491280,137.097946 91.889046,135.097488 
	C89.597549,127.485847 86.822929,120.021049 84.411560,112.443237 
	C83.657127,110.072426 82.686310,108.809036 79.940033,108.917419 
	C77.482445,109.014404 75.004883,108.301994 72.524689,108.180870 
	C60.908604,107.613541 55.733658,101.291214 57.387451,89.255440 
	C61.220577,88.728416 65.238358,88.564507 69.012497,87.520134 
	C71.516235,86.827301 73.671242,84.874237 76.234367,83.206299 
z"/>
<path fill="#010101" opacity="1.000000" stroke="none" 
	d="
M154.150345,161.038971 
	C153.082474,165.199722 151.806976,169.320770 151.001572,173.531723 
	C150.082382,178.337479 147.934494,181.036865 142.597015,180.184448 
	C140.698090,179.881180 138.710037,180.135880 136.762680,180.135880 
	C136.473480,179.637939 136.184280,179.139984 135.895065,178.642044 
	C137.210159,177.344543 138.357346,175.792160 139.870575,174.795486 
	C145.249313,171.252747 146.134140,168.461517 142.962769,162.800186 
	C139.394333,156.430038 139.622559,149.837769 141.057861,142.983154 
	C142.879684,134.282486 141.912949,132.358780 134.444550,128.045547 
	C130.893448,125.994698 130.123199,124.595558 129.984940,119.714943 
	C134.639740,116.504715 139.690460,113.539291 144.010971,109.742874 
	C145.402740,108.519928 144.871887,105.108925 145.289139,102.225052 
	C152.691986,107.065277 159.219391,112.607376 160.712646,121.698059 
	C162.336853,131.585968 167.655365,137.613449 176.807922,141.350159 
	C185.970306,145.090866 191.884979,152.030396 193.526413,162.124451 
	C193.632111,162.774490 193.876373,163.410294 194.124496,164.025146 
	C194.235657,164.300659 194.515701,164.508026 194.723358,164.742676 
	C199.570236,162.896820 200.897354,160.605804 199.493240,155.641510 
	C198.007248,150.387680 195.935501,145.287231 194.666382,139.988815 
	C193.869095,136.660248 193.678635,133.062393 193.920807,129.635162 
	C194.392029,122.966820 200.242523,119.732330 206.102859,122.792168 
	C207.330978,123.433411 207.986679,125.170990 208.906158,126.403366 
	C207.543793,127.338791 206.014053,129.242828 204.848145,129.041351 
	C199.898117,128.186035 199.703918,131.146149 200.482330,134.289886 
	C202.310303,141.672623 205.059723,148.865875 206.357986,156.323532 
	C206.940033,159.666977 206.088882,165.414490 203.902100,166.704483 
	C195.396622,171.721939 189.288544,181.551300 177.310791,180.181763 
	C170.737045,179.430115 164.006683,180.065445 157.347153,180.033783 
	C155.764145,180.026260 154.181915,179.851944 152.488327,179.747498 
	C153.602707,175.326843 153.602707,175.326843 160.907776,174.616806 
	C159.035629,171.492249 157.022018,168.131607 155.251160,164.133972 
	C156.274246,157.922058 159.598007,154.709076 165.900940,153.469177 
	C158.553207,152.573792 155.798828,154.540909 154.150345,161.038971 
z"/>
<path fill="#719B52" opacity="1.000000" stroke="none" 
	d="
M154.292435,161.316116 
	C155.798828,154.540909 158.553207,152.573792 165.900940,153.469177 
	C159.598007,154.709076 156.274246,157.922058 155.246094,163.759949 
	C154.810364,163.213043 154.622437,162.403152 154.292435,161.316116 
z"/>
</svg>